<svg preserveAspectRatio="none" width="100%" height="100%" overflow="visible" style="display: block;" viewBox="0 0 13.8167 13.8167" fill="none" xmlns="http://www.w3.org/2000/svg">
<path id="Vector" d="M8.63188 6.90836L13.4561 2.08415C13.6851 1.85559 13.8138 1.54545 13.8141 1.22194C13.8144 0.898434 13.6862 0.588063 13.4576 0.359106C13.2291 0.13015 12.9189 0.00136314 12.5954 0.00107744C12.2719 0.000791743 11.9615 0.129031 11.7326 0.357583L6.90836 5.1818L2.08415 0.357583C1.85519 0.128627 1.54466 0 1.22086 0C0.897071 0 0.586539 0.128627 0.357583 0.357583C0.128627 0.586539 0 0.897071 0 1.22086C0 1.54466 0.128627 1.85519 0.357583 2.08415L5.1818 6.90836L0.357583 11.7326C0.128627 11.9615 0 12.2721 0 12.5959C0 12.9197 0.128627 13.2302 0.357583 13.4591C0.586539 13.6881 0.897071 13.8167 1.22086 13.8167C1.54466 13.8167 1.85519 13.6881 2.08415 13.4591L6.90836 8.63493L11.7326 13.4591C11.9615 13.6881 12.2721 13.8167 12.5959 13.8167C12.9197 13.8167 13.2302 13.6881 13.4591 13.4591C13.6881 13.2302 13.8167 12.9197 13.8167 12.5959C13.8167 12.2721 13.6881 11.9615 13.4591 11.7326L8.63188 6.90836Z" fill="white"/>
</svg>
