<svg preserveAspectRatio="none" width="100%" height="100%" overflow="visible" style="display: block;" viewBox="0 0 28 28" fill="none" xmlns="http://www.w3.org/2000/svg">
<g id="repeate-music">
<g id="Vector" opacity="0">
</g>
<path id="Vector_2" d="M4.56167 20.0433C4.34 20.0433 4.11833 19.9617 3.94333 19.7867C2.345 18.1767 1.45833 16.0533 1.45833 13.8017C1.45833 9.12333 5.25 5.32 9.91667 5.32L16.9983 5.34333L15.7267 4.13C15.3767 3.79167 15.365 3.24333 15.7033 2.89333C16.0417 2.54333 16.59 2.53167 16.94 2.87L19.7867 5.6C20.0433 5.845 20.125 6.23 19.9967 6.55667C19.8683 6.88333 19.5417 7.105 19.18 7.105L9.91667 7.08167C6.21833 7.08167 3.20833 10.1033 3.20833 13.8133C3.20833 15.5983 3.90833 17.29 5.18 18.5617C5.51833 18.9 5.51833 19.46 5.18 19.7983C5.005 19.9617 4.78333 20.0433 4.56167 20.0433Z" fill="#13203C"/>
<path id="Vector_3" d="M11.6667 25.375C11.445 25.375 11.235 25.2933 11.06 25.13L8.21333 22.4C7.95667 22.155 7.875 21.77 8.00333 21.4433C8.13167 21.1167 8.45833 20.895 8.82 20.895L18.095 20.9183C21.7933 20.9183 24.8033 17.8967 24.8033 14.1867C24.8033 12.4017 24.1033 10.71 22.8317 9.43833C22.4933 9.1 22.4933 8.54 22.8317 8.20167C23.17 7.86333 23.73 7.86333 24.0683 8.20167C25.6667 9.81167 26.5533 11.935 26.5533 14.1867C26.5533 18.865 22.7617 22.6683 18.095 22.6683L11.0133 22.645L12.285 23.8583C12.635 24.1967 12.6467 24.745 12.3083 25.095C12.1217 25.2817 11.9 25.375 11.6667 25.375Z" fill="#13203C"/>
<path id="Vector_4" d="M10.5 18.0833H17.5C19.74 18.0833 21.5833 16.2517 21.5833 14C21.5833 11.76 19.7517 9.91667 17.5 9.91667H10.5C8.26 9.91667 6.41667 11.7483 6.41667 14C6.41667 16.2517 8.24833 18.0833 10.5 18.0833Z" fill="#13203C"/>
</g>
</svg>
