<svg preserveAspectRatio="none" width="100%" height="100%" overflow="visible" style="display: block;" viewBox="0 0 28 28" fill="none" xmlns="http://www.w3.org/2000/svg">
<g id="routing-2">
<path id="Vector" d="M13.9985 23.0417H10.8719C9.51854 23.0417 8.34021 22.225 7.87354 20.965C7.39521 19.705 7.74521 18.3167 8.76021 17.4183L18.0819 9.26333C18.6419 8.77333 18.6535 8.10833 18.4902 7.65333C18.3152 7.19833 17.8719 6.70833 17.1252 6.70833H13.9985C13.5202 6.70833 13.1235 6.31167 13.1235 5.83333C13.1235 5.355 13.5202 4.95833 13.9985 4.95833H17.1252C18.4785 4.95833 19.6569 5.775 20.1235 7.035C20.6019 8.295 20.2519 9.68333 19.2369 10.5817L9.91521 18.7367C9.35521 19.2267 9.34354 19.8917 9.50688 20.3467C9.68188 20.8017 10.1252 21.2917 10.8719 21.2917H13.9985C14.4769 21.2917 14.8735 21.6883 14.8735 22.1667C14.8735 22.645 14.4769 23.0417 13.9985 23.0417Z" fill="#13203C"/>
<path id="Vector_2" d="M23.3319 17.5H19.8319C18.5485 17.5 17.4985 18.55 17.4985 19.8333V23.3333C17.4985 24.6167 18.5485 25.6667 19.8319 25.6667H23.3319C24.6152 25.6667 25.6652 24.6167 25.6652 23.3333V19.8333C25.6652 18.55 24.6152 17.5 23.3319 17.5ZM21.5935 22.75C20.9519 22.75 20.4269 22.225 20.4269 21.5833C20.4269 20.9417 20.9402 20.4167 21.5935 20.4167H21.6052C22.2469 20.4167 22.7719 20.9417 22.7719 21.5833C22.7719 22.225 22.2469 22.75 21.5935 22.75Z" fill="#13203C"/>
<path id="Vector_3" d="M6.38021 2.33333C4.12854 2.33333 2.29688 4.165 2.29688 6.41667C2.29688 8.66833 4.12854 10.5 6.38021 10.5C8.63188 10.5 10.4635 8.66833 10.4635 6.41667C10.4635 4.165 8.64354 2.33333 6.38021 2.33333ZM6.42688 7.58333C5.78521 7.58333 5.26021 7.05833 5.26021 6.41667C5.26021 5.775 5.77354 5.25 6.42688 5.25H6.43854C7.08021 5.25 7.60521 5.775 7.60521 6.41667C7.60521 7.05833 7.08021 7.58333 6.42688 7.58333Z" fill="#13203C"/>
<path id="Vector_4" opacity="0" d="M0 28L28 28L28 0L0 0L0 28Z" fill="#13203C"/>
</g>
</svg>
