<svg preserveAspectRatio="none" width="100%" height="100%" overflow="visible" style="display: block;" viewBox="0 0 20 20" fill="none" xmlns="http://www.w3.org/2000/svg">
<g id="Star" clip-path="url(#clip0_0_230)">
<path id="Star_2" d="M8.61502 3.82989C9.12741 2.59795 10.8726 2.59795 11.385 3.82989L12.2932 6.01348C12.5092 6.53284 12.9976 6.88769 13.5583 6.93264L15.9157 7.12163C17.2456 7.22825 17.7849 8.88801 16.7716 9.75602L14.9756 11.2945C14.5484 11.6605 14.3618 12.2346 14.4923 12.7818L15.0411 15.0822C15.3506 16.38 13.9388 17.4058 12.8001 16.7103L10.7819 15.4776C10.3019 15.1844 9.69814 15.1844 9.21812 15.4776L7.19988 16.7103C6.06123 17.4058 4.64936 16.38 4.95894 15.0822L5.50766 12.7818C5.63818 12.2346 5.45162 11.6605 5.02443 11.2945L3.22837 9.75602C2.21506 8.88801 2.75435 7.22825 4.08433 7.12163L6.4417 6.93264C7.00239 6.88769 7.4908 6.53284 7.70681 6.01348L8.61502 3.82989Z" fill="#FFD546"/>
</g>
<defs>
<clipPath id="clip0_0_230">
<rect width="20" height="20" fill="white"/>
</clipPath>
</defs>
</svg>
