<svg preserveAspectRatio="none" width="100%" height="100%" overflow="visible" style="display: block;" viewBox="0 0 28 28" fill="none" xmlns="http://www.w3.org/2000/svg">
<g id="unlimited">
<g id="Vector" opacity="0">
</g>
<path id="Vector_2" d="M20.3583 20.1833C18.3983 20.1833 16.59 19.2617 15.4117 17.64C15.1317 17.255 15.2133 16.7067 15.5983 16.415C15.9833 16.1233 16.5317 16.2167 16.8233 16.6017C17.675 17.7567 18.9583 18.4217 20.3583 18.4217C22.7967 18.4217 24.7917 16.4383 24.7917 13.9883C24.7917 11.5383 22.8083 9.555 20.3583 9.555C18.7017 9.555 17.1383 10.4417 16.2867 11.8533L13.195 16.9983C12.0283 18.9467 9.89333 20.1483 7.63 20.1483C4.22333 20.1483 1.44667 17.3717 1.44667 13.965C1.44667 10.5583 4.22333 7.78167 7.63 7.78167C9.59 7.78167 11.3983 8.70333 12.5767 10.325C12.8567 10.71 12.775 11.2583 12.39 11.55C11.9933 11.8417 11.4567 11.7483 11.165 11.3633C10.325 10.2317 9.04167 9.56667 7.64167 9.56667C5.20333 9.56667 3.20833 11.55 3.20833 14C3.20833 16.45 5.19167 18.4333 7.64167 18.4333C9.29833 18.4333 10.8617 17.5467 11.7133 16.135L14.805 10.99C15.9717 9.04167 18.1067 7.84 20.37 7.84C23.7767 7.84 26.5533 10.6167 26.5533 14.0233C26.5533 17.43 23.765 20.1833 20.3583 20.1833Z" fill="#FFD546"/>
<path id="Vector_3" d="M7.58333 16.3333C8.872 16.3333 9.91667 15.2887 9.91667 14C9.91667 12.7113 8.872 11.6667 7.58333 11.6667C6.29467 11.6667 5.25 12.7113 5.25 14C5.25 15.2887 6.29467 16.3333 7.58333 16.3333Z" fill="#FFD546"/>
<path id="Vector_4" d="M20.4167 16.3333C21.7053 16.3333 22.75 15.2887 22.75 14C22.75 12.7113 21.7053 11.6667 20.4167 11.6667C19.128 11.6667 18.0833 12.7113 18.0833 14C18.0833 15.2887 19.128 16.3333 20.4167 16.3333Z" fill="#FFD546"/>
</g>
</svg>
