<svg preserveAspectRatio="none" width="100%" height="100%" overflow="visible" style="display: block;" viewBox="0 0 19.9998 10.3334" fill="none" xmlns="http://www.w3.org/2000/svg">
<g id="Group">
<path id="Vector" d="M4.33332 7C3.41434 7 2.66664 7.74766 2.66664 8.66668C2.66664 9.58566 3.4143 10.3334 4.33332 10.3334C5.2523 10.3334 6 9.5857 6 8.66668C6 7.7477 5.25234 7 4.33332 7ZM4.33332 9.66668C3.78199 9.66668 3.33332 9.21801 3.33332 8.66668C3.33332 8.11535 3.78199 7.66668 4.33332 7.66668C4.88465 7.66668 5.33332 8.11535 5.33332 8.66668C5.33332 9.21801 4.88465 9.66668 4.33332 9.66668ZM15.6667 7C14.7477 7 14 7.74766 14 8.66668C14 9.58566 14.7477 10.3334 15.6667 10.3334C16.5857 10.3334 17.3334 9.5857 17.3334 8.66668C17.3333 7.7477 16.5857 7 15.6667 7ZM15.6667 9.66668C15.1154 9.66668 14.6667 9.21801 14.6667 8.66668C14.6667 8.11535 15.1154 7.66668 15.6667 7.66668C16.218 7.66668 16.6667 8.11535 16.6667 8.66668C16.6667 9.21801 16.218 9.66668 15.6667 9.66668Z" fill="#132235"/>
<path id="Vector_2" d="M19.6667 7V5C19.6667 4.93 19.6447 4.86176 19.6038 4.80497C19.5629 4.74819 19.5051 4.70574 19.4387 4.68367L17.557 4.05668C16.7363 2.69 15.581 1.83867 13.9416 1.39367L13.6566 0.252343C13.6385 0.180297 13.5969 0.116356 13.5383 0.0706479C13.4798 0.0249397 13.4076 7.77848e-05 13.3333 0H9.66664C9.59235 6.42404e-05 9.5202 0.0249212 9.46163 0.0706315C9.40307 0.116342 9.36143 0.18029 9.34332 0.252343L9.01 1.58566C9.00965 1.58633 9.01 1.58734 9.01 1.58801C7.21832 1.98902 5.855 2.78633 4.84398 4.00301C2.83199 4.03137 0.698008 4.61035 0.33332 5.66668V7C0.289544 6.99998 0.246193 7.00859 0.205746 7.02534C0.165299 7.04209 0.128548 7.06664 0.0975929 7.09759C0.0666382 7.12855 0.0420866 7.1653 0.0253412 7.20575C0.0085957 7.24619 -1.53783e-05 7.28954 2.06166e-08 7.33332V8.66668C-1.53783e-05 8.71046 0.0085957 8.75381 0.0253412 8.79425C0.0420866 8.8347 0.0666382 8.87145 0.0975929 8.90241C0.128548 8.93336 0.165299 8.95791 0.205746 8.97466C0.246193 8.9914 0.289544 9.00001 0.33332 9H1.66664C1.71042 9.00001 1.75377 8.9914 1.79421 8.97466C1.83466 8.95791 1.87141 8.93336 1.90237 8.90241C1.93332 8.87145 1.95787 8.8347 1.97462 8.79425C1.99137 8.75381 1.99998 8.71046 1.99996 8.66668C1.99996 7.38 3.04695 6.33336 4.33328 6.33336C5.61961 6.33336 6.6666 7.38004 6.6666 8.66668C6.66659 8.71046 6.6752 8.75381 6.69194 8.79425C6.70869 8.8347 6.73324 8.87145 6.76419 8.90241C6.79515 8.93336 6.8319 8.95791 6.87235 8.97466C6.91279 8.9914 6.95615 9.00001 6.99992 9H12.9999C13.0437 9.00001 13.087 8.9914 13.1275 8.97466C13.1679 8.95791 13.2047 8.93336 13.2356 8.90241C13.2666 8.87145 13.2912 8.8347 13.3079 8.79425C13.3246 8.75381 13.3333 8.71046 13.3332 8.66668C13.3332 7.38 14.3802 6.33336 15.6666 6.33336C16.9529 6.33336 17.9999 7.38004 17.9999 8.66668C17.9999 8.71046 18.0085 8.75381 18.0252 8.79425C18.042 8.8347 18.0665 8.87145 18.0975 8.90241C18.1284 8.93336 18.1652 8.95791 18.2056 8.97466C18.2461 8.9914 18.2894 9.00001 18.3332 9H19.6665C19.7103 9.00001 19.7537 8.9914 19.7941 8.97466C19.8345 8.95791 19.8713 8.93336 19.9023 8.90241C19.9332 8.87145 19.9578 8.8347 19.9745 8.79425C19.9912 8.75381 19.9999 8.71046 19.9998 8.66668V7.33336C19.9999 7.28959 19.9913 7.24623 19.9746 7.20578C19.9579 7.16532 19.9333 7.12857 19.9024 7.0976C19.8714 7.06664 19.8347 7.04208 19.7942 7.02534C19.7538 7.00859 19.7105 6.99998 19.6667 7ZM8 6.16668C7.99999 6.21088 7.98243 6.25327 7.95117 6.28453C7.91991 6.31578 7.87752 6.33335 7.83332 6.33336H7.16664C7.12244 6.33335 7.08005 6.31578 7.04879 6.28453C7.01754 6.25327 6.99997 6.21088 6.99996 6.16668V5.5C6.99997 5.4558 7.01754 5.41341 7.04879 5.38215C7.08005 5.35089 7.12244 5.33333 7.16664 5.33332H7.83332C7.87752 5.33333 7.91991 5.35089 7.95117 5.38215C7.98243 5.41341 7.99999 5.4558 8 5.5V6.16668ZM9.33332 7.83336C9.33331 7.87756 9.31575 7.91995 9.28449 7.95121C9.25323 7.98246 9.21084 8.00003 9.16664 8.00004H8.5C8.4558 8.00003 8.41341 7.98246 8.38215 7.95121C8.35089 7.91995 8.33333 7.87756 8.33332 7.83336V7.16668C8.33333 7.12248 8.35089 7.08009 8.38215 7.04883C8.41341 7.01757 8.4558 7.00001 8.5 7H9.16668C9.21088 7.00001 9.25327 7.01757 9.28453 7.04883C9.31578 7.08009 9.33335 7.12248 9.33336 7.16668V7.83336H9.33332ZM10.6667 6.16668C10.6667 6.21088 10.6491 6.25327 10.6178 6.28453C10.5866 6.31578 10.5442 6.33335 10.5 6.33336H9.83332C9.78912 6.33335 9.74673 6.31578 9.71547 6.28453C9.68422 6.25327 9.66665 6.21088 9.66664 6.16668V5.5C9.66665 5.4558 9.68422 5.41341 9.71547 5.38215C9.74673 5.35089 9.78912 5.33333 9.83332 5.33332H10.5C10.5442 5.33333 10.5866 5.35089 10.6178 5.38215C10.6491 5.41341 10.6667 5.4558 10.6667 5.5V6.16668ZM10.4067 4H5.73965C6.6243 3.10867 8.09598 2.19766 10.909 1.98965L10.4067 4ZM12 7.83336C12 7.87756 11.9824 7.91995 11.9512 7.95121C11.9199 7.98246 11.8775 8.00003 11.8333 8.00004H11.1666C11.1224 8.00003 11.08 7.98246 11.0488 7.95121C11.0175 7.91995 11 7.87756 11 7.83336V7.16668C11 7.12248 11.0175 7.08009 11.0488 7.04883C11.08 7.01757 11.1224 7.00001 11.1666 7H11.8333C11.8775 7.00001 11.9199 7.01757 11.9512 7.04883C11.9824 7.08009 12 7.12248 12 7.16668V7.83336ZM13.3333 6.16668C13.3333 6.21088 13.3157 6.25327 13.2845 6.28453C13.2532 6.31578 13.2108 6.33335 13.1666 6.33336H12.5C12.4558 6.33335 12.4134 6.31578 12.3822 6.28453C12.3509 6.25327 12.3333 6.21088 12.3333 6.16668V5.5C12.3333 5.4558 12.3509 5.41341 12.3822 5.38215C12.4134 5.35089 12.4558 5.33333 12.5 5.33332H13.1667C13.2109 5.33333 13.2533 5.35089 13.2845 5.38215C13.3158 5.41341 13.3333 5.4558 13.3334 5.5V6.16668H13.3333ZM14.7177 4H11.0937L11.6047 1.955C12.215 1.93668 12.881 1.94801 13.6114 1.99734C14.1154 2.12301 14.5654 2.28602 14.9694 2.49035L14.7177 4ZM15.3933 4L15.5827 2.86301C16.0196 3.17168 16.3977 3.54434 16.7237 4H15.3933Z" fill="#364B63"/>
</g>
</svg>
