<svg preserveAspectRatio="none" width="100%" height="100%" overflow="visible" style="display: block;" viewBox="0 0 20 20" fill="none" xmlns="http://www.w3.org/2000/svg">
<g id="clock">
<path id="Vector" d="M10 1.66667C5.40833 1.66667 1.66667 5.40833 1.66667 10C1.66667 14.5917 5.40833 18.3333 10 18.3333C14.5917 18.3333 18.3333 14.5917 18.3333 10C18.3333 5.40833 14.5917 1.66667 10 1.66667ZM13.625 12.975C13.5083 13.175 13.3 13.2833 13.0833 13.2833C12.975 13.2833 12.8667 13.2583 12.7667 13.1917L10.1833 11.65C9.54167 11.2667 9.06667 10.425 9.06667 9.68333V6.26667C9.06667 5.925 9.35 5.64167 9.69167 5.64167C10.0333 5.64167 10.3167 5.925 10.3167 6.26667V9.68333C10.3167 9.98333 10.5667 10.425 10.825 10.575L13.4083 12.1167C13.7083 12.2917 13.8083 12.675 13.625 12.975Z" fill="#364B63"/>
<g id="Vector_2" opacity="0">
</g>
</g>
</svg>
