<svg preserveAspectRatio="none" width="100%" height="100%" overflow="visible" style="display: block;" viewBox="0 0 20 20" fill="none" xmlns="http://www.w3.org/2000/svg">
<g id="moneys">
<g id="Vector" opacity="0">
</g>
<path id="Vector_2" d="M15.975 5.53333C15.6167 3.725 14.275 2.93333 12.4083 2.93333H5.09167C2.89167 2.93333 1.425 4.03333 1.425 6.6V10.8917C1.425 12.7417 2.18333 13.825 3.43333 14.2917C3.61667 14.3583 3.81667 14.4167 4.025 14.45C4.35833 14.525 4.71667 14.5583 5.09167 14.5583H12.4167C14.6167 14.5583 16.0833 13.4583 16.0833 10.8917V6.6C16.0833 6.20833 16.05 5.85833 15.975 5.53333ZM4.60833 10C4.60833 10.3417 4.325 10.625 3.98333 10.625C3.64167 10.625 3.35833 10.3417 3.35833 10V7.5C3.35833 7.15833 3.64167 6.875 3.98333 6.875C4.325 6.875 4.60833 7.15833 4.60833 7.5V10ZM8.75 10.95C7.53333 10.95 6.55 9.96667 6.55 8.75C6.55 7.53333 7.53333 6.55 8.75 6.55C9.96667 6.55 10.95 7.53333 10.95 8.75C10.95 9.96667 9.96667 10.95 8.75 10.95ZM14.1333 10C14.1333 10.3417 13.85 10.625 13.5083 10.625C13.1667 10.625 12.8833 10.3417 12.8833 10V7.5C12.8833 7.15833 13.1667 6.875 13.5083 6.875C13.85 6.875 14.1333 7.15833 14.1333 7.5V10Z" fill="#364B63"/>
<path id="Vector_3" d="M18.5833 9.1V13.3917C18.5833 15.9583 17.1167 17.0667 14.9083 17.0667H7.59167C6.96667 17.0667 6.40833 16.975 5.925 16.7917C5.53333 16.65 5.19167 16.4417 4.91667 16.175C4.76667 16.0333 4.88333 15.8083 5.09167 15.8083H12.4083C15.4917 15.8083 17.325 13.975 17.325 10.9V6.6C17.325 6.4 17.55 6.275 17.6917 6.425C18.2583 7.025 18.5833 7.9 18.5833 9.1Z" fill="#364B63"/>
</g>
</svg>
