<svg preserveAspectRatio="none" width="100%" height="100%" overflow="visible" style="display: block;" viewBox="0 0 43 43" fill="none" xmlns="http://www.w3.org/2000/svg">
<g id="icon/image/timer_24px">
<path id="icon/image/timer_24px_2" d="M21.8583 9.65742C25.6566 9.65742 29.1506 10.9827 31.9277 13.2043L34.4716 10.6604C35.3854 11.4129 36.2276 12.273 36.998 13.1867L34.454 15.7307C36.6578 18.5077 37.9833 22.002 37.9833 25.7824C37.9832 34.6869 30.7807 41.9074 21.8583 41.9074C12.9359 41.9074 5.7335 34.6869 5.73333 25.7824C5.73333 16.8778 12.9538 9.65742 21.8583 9.65742ZM21.8583 13.258C14.9246 13.258 9.31636 18.8663 9.31634 25.8C9.31634 32.7337 14.9246 38.342 21.8583 38.342C28.7921 38.342 34.4003 32.7337 34.4003 25.8C34.4003 18.8663 28.7921 13.258 21.8583 13.258ZM23.6503 16.842V27.592H20.0663V16.842H23.6503ZM27.2333 7.88301H16.4833V4.3H27.2333V7.88301Z" fill="white"/>
</g>
</svg>
