<svg viewBox="0 0 19.1907 20.0001" fill="none" xmlns="http://www.w3.org/2000/svg">
<path d="M18.2655 10.2591C18.185 10.0945 18.185 9.90564 18.2655 9.74103L19.0114 8.21506C19.4267 7.36542 19.0977 6.35273 18.2623 5.90949L16.7619 5.1134C16.6 5.02754 16.489 4.87473 16.4574 4.6943L16.1639 3.02131C16.0005 2.08983 15.1389 1.46389 14.2027 1.59635L12.5209 1.83424C12.3394 1.85987 12.1599 1.80151 12.0282 1.67413L10.8075 0.493195C10.1278 -0.164379 9.06296 -0.164418 8.38327 0.493195L7.1625 1.67424C7.03078 1.80166 6.85129 1.85991 6.6698 1.83436L4.98806 1.59647C4.05154 1.46393 3.19022 2.08994 3.02682 3.02142L2.73338 4.69434C2.7017 4.87481 2.59073 5.02758 2.42889 5.11348L0.928511 5.90957C0.0931248 6.35277 -0.235936 7.36554 0.179374 8.21518L0.925268 9.74111C1.00574 9.90576 1.00574 10.0946 0.925268 10.2592L0.179335 11.7851C-0.235975 12.6348 0.0930856 13.6475 0.928471 14.0907L2.42885 14.8868C2.59073 14.9726 2.7017 15.1255 2.73338 15.3059L3.02682 16.9789C3.17557 17.8268 3.90267 18.4215 4.73833 18.4214C4.82064 18.4214 4.90415 18.4157 4.9881 18.4038L6.66984 18.1659C6.85121 18.1402 7.03082 18.1986 7.16254 18.326L8.38327 19.507C8.72319 19.8358 9.15921 20.0002 9.59537 20.0001C10.0314 20.0001 10.4677 19.8357 10.8075 19.507L12.0282 18.326C12.16 18.1986 12.3395 18.1404 12.5209 18.1659L14.2027 18.4038C15.1393 18.5363 16.0005 17.9103 16.1639 16.9788L16.4574 15.3059C16.4891 15.1255 16.6001 14.9727 16.7619 14.8868L18.2623 14.0907C19.0977 13.6475 19.4267 12.6347 19.0114 11.7851L18.2655 10.2591ZM17.7216 13.0717L16.2212 13.8678C15.7429 14.1216 15.4148 14.5731 15.3212 15.1065L15.0278 16.7795C14.9725 17.0947 14.6812 17.3063 14.3643 17.2616L12.6825 17.0237C12.1462 16.9477 11.6155 17.1204 11.2262 17.4969L10.0054 18.6778C9.77553 18.9002 9.41526 18.9002 9.18526 18.6778L7.96452 17.4968C7.63554 17.1786 7.20547 17.0061 6.75648 17.0061C6.67422 17.0061 6.59129 17.0119 6.50824 17.0237L4.8265 17.2616C4.50986 17.3063 4.21826 17.0946 4.16294 16.7795L3.86947 15.1065C3.77588 14.573 3.44783 14.1215 2.96944 13.8677L1.46905 13.0716C1.1864 12.9217 1.07507 12.5791 1.21558 12.2916L1.96151 10.7656C2.19932 10.2791 2.19932 9.72103 1.96151 9.23447L1.21558 7.70851C1.07507 7.42105 1.1864 7.07843 1.46905 6.92847L2.96944 6.13238C3.44779 5.87852 3.77588 5.42703 3.86943 4.8936L4.16287 3.22064C4.21818 2.90549 4.50951 2.69377 4.82642 2.73853L6.50817 2.97642C7.04429 3.05232 7.57519 2.87978 7.96445 2.50326L9.18522 1.32233C9.41514 1.09991 9.77541 1.09991 10.0054 1.32233L11.2261 2.50326C11.6154 2.87982 12.1462 3.05232 12.6824 2.97642L14.3642 2.73853C14.6809 2.69373 14.9725 2.90549 15.0277 3.22064L15.3212 4.89364C15.4148 5.42707 15.7428 5.87859 16.2212 6.13238L17.7216 6.92847C18.0042 7.07843 18.1156 7.42105 17.9751 7.70851L17.2291 9.23443C16.9913 9.72095 16.9913 10.2791 17.2291 10.7656L17.9751 12.2915C18.1156 12.5791 18.0043 12.9217 17.7216 13.0717Z" fill="black"/>
<g transform="translate(5.21,5.62)"><path d="M8.59739 0.168925C8.3722 -0.0563083 8.00696 -0.0563083 7.78173 0.168925L0.168925 7.78177C-0.0563082 8.007 -0.0563082 8.3722 0.168925 8.59743C0.281541 8.71005 0.429158 8.76637 0.576735 8.76637C0.724312 8.76637 0.871968 8.71009 0.984545 8.59743L8.59735 0.984623C8.82266 0.759351 8.82266 0.394197 8.59739 0.168925Z" fill="black"/></g>
<g transform="translate(5.17,4.81)"><path d="M2.11479 0C0.948705 0 0 0.948706 0 2.11479C0 3.28088 0.948705 4.22958 2.11479 4.22958C3.28088 4.22958 4.22958 3.28088 4.22958 2.11479C4.22958 0.948706 3.28088 0 2.11479 0ZM2.11479 3.07604C1.58476 3.07604 1.15355 2.64483 1.15355 2.11475C1.15355 1.58472 1.58476 1.15351 2.11479 1.15351C2.64483 1.15351 3.07608 1.58472 3.07608 2.11475C3.07604 2.64483 2.64483 3.07604 2.11479 3.07604Z" fill="black"/></g>
<g transform="translate(9.79,10.96)"><path d="M2.11479 0C0.948706 0 0 0.948706 0 2.11479C0 3.28088 0.948706 4.22959 2.11479 4.22959C3.28088 4.22959 4.22959 3.28088 4.22959 2.11479C4.22959 0.948706 3.28088 0 2.11479 0ZM2.11479 3.07604C1.58476 3.07604 1.15351 2.64483 1.15351 2.11479C1.15351 1.58476 1.58472 1.15355 2.11479 1.15355C2.64483 1.15355 3.07604 1.58476 3.07604 2.11479C3.07604 2.64483 2.64483 3.07604 2.11479 3.07604Z" fill="black"/></g>
</svg>
