<svg preserveAspectRatio="none" width="100%" height="100%" overflow="visible" style="display: block;" viewBox="0 0 36 36" fill="none" xmlns="http://www.w3.org/2000/svg">
<g id="Done">
<path id="Subtract" fill-rule="evenodd" clip-rule="evenodd" d="M19.8627 3.94778C18.8834 2.80589 17.1166 2.80589 16.1373 3.94778L15.9997 4.10823C15.3172 4.90413 14.2044 5.17842 13.2301 4.79088L13.0337 4.71276C11.6359 4.15675 10.0715 4.97782 9.7351 6.444L9.68782 6.65002C9.45333 7.67195 8.59543 8.43198 7.55269 8.54159L7.34246 8.56368C5.84642 8.72094 4.84277 10.175 5.22624 11.6296L5.28013 11.834C5.54741 12.8478 5.14098 13.9195 4.26861 14.5011L4.09274 14.6184C2.84114 15.4528 2.62818 17.2068 3.6437 18.3165L3.7864 18.4725C4.49423 19.246 4.63238 20.3838 4.13023 21.3042L4.029 21.4897C3.30857 22.8103 3.93508 24.4623 5.35002 24.973L5.54884 25.0447C6.53505 25.4007 7.18614 26.344 7.16925 27.3923L7.16585 27.6037C7.14163 29.1077 8.46409 30.2793 9.95429 30.074L10.1637 30.0451C11.2024 29.902 12.2172 30.4347 12.6895 31.3708L12.7847 31.5595C13.4622 32.9026 15.1777 33.3254 16.4017 32.451L16.5737 32.3282C17.4269 31.7187 18.5731 31.7187 19.4263 32.3282L19.5983 32.451C20.8223 33.3254 22.5378 32.9026 23.2153 31.5595L23.3105 31.3708C23.7828 30.4347 24.7976 29.902 25.8363 30.0451L26.0457 30.074C27.5359 30.2793 28.8584 29.1077 28.8342 27.6037L28.8308 27.3923C28.8139 26.344 29.4649 25.4007 30.4512 25.0447L30.65 24.973C32.0649 24.4623 32.6914 22.8103 31.971 21.4897L31.8698 21.3042C31.3676 20.3838 31.5058 19.246 32.2136 18.4725L32.3563 18.3165C33.3718 17.2068 33.1589 15.4528 31.9073 14.6184L31.7314 14.5011C30.859 13.9195 30.4526 12.8478 30.7199 11.834L30.7738 11.6296C31.1572 10.175 30.1536 8.72094 28.6575 8.56368L28.4473 8.54159C27.4046 8.43198 26.5467 7.67195 26.3122 6.65002L26.2649 6.444C25.9285 4.97782 24.3641 4.15675 22.9663 4.71276L22.7699 4.79088C21.7956 5.17842 20.6828 4.90413 20.0003 4.10823L19.8627 3.94778ZM23.7645 16.2313C24.3139 15.6617 24.2975 14.7547 23.728 14.2053C23.1584 13.6559 22.2514 13.6722 21.702 14.2418L17.7167 18.3733C17.1232 18.9886 16.1405 18.9974 15.536 18.393L14.28 17.137C13.7204 16.5774 12.8132 16.5774 12.2537 17.137C11.6941 17.6965 11.6941 18.6037 12.2537 19.1633L14.9539 21.8635C15.8984 22.808 17.4339 22.7942 18.3612 21.8328L23.7645 16.2313Z" fill="#4FBF67"/>
</g>
</svg>
