<svg preserveAspectRatio="none" width="100%" height="100%" overflow="visible" style="display: block;" viewBox="0 0 36 36" fill="none" xmlns="http://www.w3.org/2000/svg">
<g id="Icons">
<path id="&#240;&#159;&#140;&#136; Secondary" fill-rule="evenodd" clip-rule="evenodd" d="M21.0126 28.8425C20.2628 28.6824 15.6935 28.6824 14.9436 28.8425C14.3026 28.9906 13.6094 29.335 13.6094 30.0904C13.6466 30.811 14.0685 31.447 14.6529 31.8503L14.6514 31.8518C15.4073 32.441 16.2943 32.8157 17.2231 32.9501C17.718 33.0181 18.2219 33.0151 18.7347 32.9501C19.662 32.8157 20.549 32.441 21.3048 31.8518L21.3034 31.8503C21.8877 31.447 22.3096 30.811 22.3469 30.0904C22.3469 29.335 21.6537 28.9906 21.0126 28.8425" fill="#3F8CFF" fill-opacity="0.6"/>
<path id="&#240;&#159;&#140;&#136; Primay" fill-rule="evenodd" clip-rule="evenodd" d="M29.6543 17.468C28.5585 16.1884 28.0606 15.0796 28.0606 13.1957V12.5552C28.0606 10.1003 27.4956 8.51861 26.2672 6.9369C24.3739 4.4805 21.1866 3.00001 18.0663 3.00001H17.9337C14.879 3.00001 11.7916 4.41252 9.86549 6.76922C8.56999 8.38265 7.93938 10.0323 7.93938 12.5552V13.1957C7.93938 15.0796 7.47426 16.1884 6.34573 17.468C5.51536 18.4107 5.24999 19.6223 5.24999 20.9336C5.24999 22.2464 5.68083 23.4897 6.54549 24.5003C7.67402 25.7119 9.26768 26.4854 10.8956 26.6199C13.2526 26.8888 15.6095 26.99 18.0007 26.99C20.3905 26.99 22.7474 26.8208 25.1059 26.6199C26.7323 26.4854 28.326 25.7119 29.4545 24.5003C30.3177 23.4897 30.75 22.2464 30.75 20.9336C30.75 19.6223 30.4846 18.4107 29.6543 17.468" fill="#3F8CFF"/>
</g>
</svg>
