<svg preserveAspectRatio="none" width="100%" height="100%" overflow="visible" style="display: block;" viewBox="0 0 9.93844 16" fill="none" xmlns="http://www.w3.org/2000/svg">
<g id="Group">
<path id="Vector" d="M3.72098 15.9161L9.89248 5.28974C10.0322 5.04915 9.83404 4.75309 9.55836 4.79059L5.45323 5.34855L6.43407 0.199117C6.46714 0.025523 6.24332 -0.0739458 6.13664 0.066898L0.0687004 8.07658C-0.10805 8.30987 0.0791068 8.64159 0.370169 8.61096L4.89604 8.13455L3.41232 15.8004C3.37654 15.9853 3.62639 16.079 3.72098 15.9161Z" fill="white"/>
<path id="Vector_2" d="M1.96626 7.50922C1.85292 7.51829 1.77764 7.39438 1.83789 7.29797L6.37473 0.0390357C6.30723 -0.0143706 6.20098 -0.0178081 6.13664 0.0671295L0.0687004 8.07682C-0.10805 8.31013 0.0791068 8.64182 0.370169 8.61119L4.89604 8.13479L3.41233 15.8007C3.39233 15.9041 3.46208 15.9768 3.54361 15.9942L6.08608 7.94901C6.20526 7.57191 5.90458 7.19413 5.51036 7.22569L1.96626 7.50922Z" fill="#924900" fill-opacity="0.2"/>
</g>
</svg>
