<svg preserveAspectRatio="none" width="100%" height="100%" overflow="visible" style="display: block;" viewBox="0 0 20 20" fill="none" xmlns="http://www.w3.org/2000/svg">
<g id="profile-circle">
<path id="Vector" d="M18.3333 10C18.3333 5.40833 14.5917 1.66667 10 1.66667C5.40833 1.66667 1.66667 5.40833 1.66667 10C1.66667 12.4167 2.70833 14.5917 4.35833 16.1167C4.35833 16.125 4.35833 16.125 4.35 16.1333C4.43333 16.2167 4.53333 16.2833 4.61667 16.3583C4.66667 16.4 4.70833 16.4417 4.75833 16.475C4.90833 16.6 5.075 16.7167 5.23333 16.8333C5.29167 16.875 5.34167 16.9083 5.4 16.95C5.55833 17.0583 5.725 17.1583 5.9 17.25C5.95833 17.2833 6.025 17.325 6.08333 17.3583C6.25 17.45 6.425 17.5333 6.60833 17.6083C6.675 17.6417 6.74167 17.675 6.80833 17.7C6.99167 17.775 7.175 17.8417 7.35833 17.9C7.425 17.925 7.49167 17.95 7.55833 17.9667C7.75833 18.025 7.95833 18.075 8.15833 18.125C8.21667 18.1417 8.275 18.1583 8.34167 18.1667C8.575 18.2167 8.80833 18.25 9.05 18.275C9.08333 18.275 9.11667 18.2833 9.15 18.2917C9.43333 18.3167 9.71667 18.3333 10 18.3333C10.2833 18.3333 10.5667 18.3167 10.8417 18.2917C10.875 18.2917 10.9083 18.2833 10.9417 18.275C11.1833 18.25 11.4167 18.2167 11.65 18.1667C11.7083 18.1583 11.7667 18.1333 11.8333 18.125C12.0333 18.075 12.2417 18.0333 12.4333 17.9667C12.5 17.9417 12.5667 17.9167 12.6333 17.9C12.8167 17.8333 13.0083 17.775 13.1833 17.7C13.25 17.675 13.3167 17.6417 13.3833 17.6083C13.5583 17.5333 13.7333 17.45 13.9083 17.3583C13.975 17.325 14.0333 17.2833 14.0917 17.25C14.2583 17.15 14.425 17.0583 14.5917 16.95C14.65 16.9167 14.7 16.875 14.7583 16.8333C14.925 16.7167 15.0833 16.6 15.2333 16.475C15.2833 16.4333 15.325 16.3917 15.375 16.3583C15.4667 16.2833 15.5583 16.2083 15.6417 16.1333C15.6417 16.125 15.6417 16.125 15.6333 16.1167C17.2917 14.5917 18.3333 12.4167 18.3333 10ZM14.1167 14.1417C11.8583 12.625 8.15833 12.625 5.88333 14.1417C5.51667 14.3833 5.21667 14.6667 4.96667 14.975C3.7 13.6917 2.91667 11.9333 2.91667 10C2.91667 6.09167 6.09167 2.91667 10 2.91667C13.9083 2.91667 17.0833 6.09167 17.0833 10C17.0833 11.9333 16.3 13.6917 15.0333 14.975C14.7917 14.6667 14.4833 14.3833 14.1167 14.1417Z" fill="#FFD546"/>
<path id="Vector_2" d="M10 5.775C8.275 5.775 6.875 7.175 6.875 8.9C6.875 10.5917 8.2 11.9667 9.95833 12.0167C9.98333 12.0167 10.0167 12.0167 10.0333 12.0167C10.05 12.0167 10.075 12.0167 10.0917 12.0167C10.1 12.0167 10.1083 12.0167 10.1083 12.0167C11.7917 11.9583 13.1167 10.5917 13.125 8.9C13.125 7.175 11.725 5.775 10 5.775Z" fill="#FFD546"/>
<g id="Vector_3" opacity="0">
</g>
</g>
</svg>
