<svg preserveAspectRatio="none" width="100%" height="100%" overflow="visible" style="display: block;" viewBox="0 0 20 20" fill="none" xmlns="http://www.w3.org/2000/svg">
<g id="route-square">
<path id="Vector" opacity="0" d="M20 0H0V20H20V0Z" fill="#FFD546"/>
<path id="Vector_2" d="M13.4917 1.66667H6.50833C3.475 1.66667 1.66667 3.475 1.66667 6.50833V13.4833C1.66667 16.525 3.475 18.3333 6.50833 18.3333H13.4833C16.5167 18.3333 18.325 16.525 18.325 13.4917V6.50833C18.3333 3.475 16.525 1.66667 13.4917 1.66667ZM14.4583 7.54167L12.5083 13.825C12.0417 15.3167 9.95 15.3417 9.45833 13.8583L8.875 12.1333C8.71667 11.6583 8.34167 11.275 7.86667 11.125L6.13333 10.5417C4.66667 10.05 4.68333 7.94167 6.175 7.49167L12.4583 5.53333C13.6917 5.15833 14.85 6.31667 14.4583 7.54167Z" fill="#FFD546"/>
</g>
</svg>
