<svg preserveAspectRatio="none" width="100%" height="100%" overflow="visible" style="display: block;" viewBox="0 0 20 20" fill="none" xmlns="http://www.w3.org/2000/svg">
<g id="ticket-2">
<path id="Vector" d="M14.325 4.13333C14.325 4.14167 14.325 4.14167 14.325 4.15C14.1167 4.14167 13.9083 4.13333 13.6833 4.13333H7.26667L8.15833 3.25C8.975 2.425 9.875 1.66667 10.9167 1.66667C11.9667 1.66667 12.8667 2.425 13.6833 3.25L14.15 3.71667C14.2667 3.825 14.325 3.975 14.325 4.13333Z" fill="#E02D3C"/>
<path id="Vector_2" d="M17.3667 10.975C17.6917 10.975 17.95 10.7083 17.95 10.375V9.64167C17.95 6.36667 16.95 5.375 13.6833 5.375H8.43333H6.31667C3.05 5.375 2.05 6.375 2.05 9.64167V10C2.05 10.3333 2.30833 10.5917 2.63333 10.5917C3.33333 10.5917 3.89167 11.1583 3.89167 11.85C3.89167 12.5417 3.33333 13.1167 2.63333 13.1167C2.30833 13.1167 2.05 13.375 2.05 13.7083V14.0667C2.05 17.3417 3.05 18.3333 6.31667 18.3333H8.425H13.675C16.9417 18.3333 17.9417 17.3333 17.9417 14.0667C17.9417 13.7417 17.6833 13.475 17.3583 13.475C16.6583 13.475 16.1 12.9167 16.1 12.225C16.1083 11.5333 16.6667 10.975 17.3667 10.975ZM9.01667 15.7167C9.01667 16.0417 8.75 16.3083 8.425 16.3083C8.1 16.3083 7.83333 16.0417 7.83333 15.7167V13.4833C7.83333 13.1583 8.1 12.8917 8.425 12.8917C8.75 12.8917 9.01667 13.1583 9.01667 13.4833V15.7167ZM9.01667 10.225C9.01667 10.55 8.75 10.8167 8.425 10.8167C8.1 10.8167 7.83333 10.55 7.83333 10.225V7.99167C7.83333 7.66667 8.1 7.4 8.425 7.4C8.75 7.4 9.01667 7.66667 9.01667 7.99167V10.225Z" fill="#E02D3C"/>
<g id="Vector_3" opacity="0">
</g>
</g>
</svg>
