<svg preserveAspectRatio="none" width="100%" height="100%" overflow="visible" style="display: block;" viewBox="0 0 20 20" fill="none" xmlns="http://www.w3.org/2000/svg">
<g id="user-tag">
<path id="Vector" opacity="0" d="M20 0H0V20H20V0Z" fill="#FFD546"/>
<path id="Vector_2" d="M15 1.66667H5C3.61667 1.66667 2.5 2.775 2.5 4.14167V13.2333C2.5 14.6 3.61667 15.7083 5 15.7083H5.63333C6.3 15.7083 6.93333 15.9667 7.4 16.4333L8.825 17.8417C9.475 18.4833 10.5333 18.4833 11.1833 17.8417L12.6083 16.4333C13.075 15.9667 13.7167 15.7083 14.375 15.7083H15C16.3833 15.7083 17.5 14.6 17.5 13.2333V4.14167C17.5 2.775 16.3833 1.66667 15 1.66667ZM10 4.79167C11.075 4.79167 11.9417 5.65833 11.9417 6.73333C11.9417 7.80833 11.075 8.675 10 8.675C8.925 8.675 8.05833 7.8 8.05833 6.73333C8.05833 5.65833 8.925 4.79167 10 4.79167ZM12.2333 12.55H7.76667C7.09167 12.55 6.7 11.8 7.075 11.2417C7.64167 10.4 8.74167 9.83333 10 9.83333C11.2583 9.83333 12.3583 10.4 12.925 11.2417C13.3 11.8 12.9 12.55 12.2333 12.55Z" fill="#FFD546"/>
</g>
</svg>
