<svg preserveAspectRatio="none" width="100%" height="100%" overflow="visible" style="display: block;" viewBox="0 0 20 20" fill="none" xmlns="http://www.w3.org/2000/svg">
<g id="vuesax/bold/routing">
<path id="Vector" d="M7.4 3.83333C6.73333 0.95 2.39167 0.941667 1.725 3.83333C1.33333 5.525 2.40833 6.95833 3.34167 7.85C4.025 8.49167 5.1 8.49167 5.78333 7.85C6.71667 6.95833 7.78333 5.525 7.4 3.83333ZM4.59167 5.16667C4.13333 5.16667 3.75833 4.79167 3.75833 4.33333C3.75833 3.875 4.125 3.5 4.58333 3.5H4.59167C5.05833 3.5 5.425 3.875 5.425 4.33333C5.425 4.79167 5.05833 5.16667 4.59167 5.16667Z" fill="#364B63"/>
<path id="Vector_2" d="M18.2583 13.8333C17.5917 10.95 13.2333 10.9417 12.5583 13.8333C12.1667 15.525 13.2417 16.9583 14.1833 17.85C14.8667 18.4917 15.95 18.4917 16.6333 17.85C17.575 16.9583 18.65 15.525 18.2583 13.8333ZM15.4417 15.1667C14.9833 15.1667 14.6083 14.7917 14.6083 14.3333C14.6083 13.875 14.975 13.5 15.4333 13.5H15.4417C15.9 13.5 16.275 13.875 16.275 14.3333C16.275 14.7917 15.9 15.1667 15.4417 15.1667Z" fill="#364B63"/>
<path id="Vector_3" d="M9.99995 16.4583H7.76662C6.79995 16.4583 5.95828 15.875 5.62495 14.975C5.28328 14.075 5.53328 13.0833 6.25828 12.4417L12.9166 6.61667C13.3166 6.26667 13.325 5.79167 13.2083 5.46667C13.0833 5.14167 12.7666 4.79167 12.2333 4.79167H9.99995C9.65828 4.79167 9.37495 4.50833 9.37495 4.16667C9.37495 3.825 9.65828 3.54167 9.99995 3.54167H12.2333C13.2 3.54167 14.0416 4.125 14.375 5.025C14.7166 5.925 14.4666 6.91667 13.7416 7.55833L7.08328 13.3833C6.68328 13.7333 6.67495 14.2083 6.79162 14.5333C6.91662 14.8583 7.23328 15.2083 7.76662 15.2083H9.99995C10.3416 15.2083 10.625 15.4917 10.625 15.8333C10.625 16.175 10.3416 16.4583 9.99995 16.4583Z" fill="#364B63"/>
<g id="Vector_4" opacity="0">
</g>
<g id="Vector_5" opacity="0">
</g>
</g>
</svg>
